<svg width="30" height="26" viewBox="0 0 30 26" fill="none" xmlns="http://www.w3.org/2000/svg">
<path d="M5.6975 6.75L11.5737 0.8725C11.8225 0.625 12.1487 0.5 12.475 0.5C13.2412 0.5 13.75 1.13125 13.75 1.78625C13.75 2.09875 13.635 2.41625 13.3763 2.675L9.30125 6.75H5.6975ZM20.6987 6.75H24.3025L18.4263 0.8725C18.1775 0.625 17.8512 0.5 17.525 0.5C16.7588 0.5 16.25 1.13125 16.25 1.78625C16.25 2.09875 16.365 2.41625 16.6237 2.675L20.6987 6.75ZM25.3275 11.75L25.3075 11.8013L20.81 23H9.19L4.69375 11.7987L4.67375 11.75H25.3275ZM30 9.25H0V11.75H0.80375C1.47125 11.75 2.08 12.13 2.37375 12.73L7.5 25.5H22.5L27.6275 12.7325C27.9187 12.1313 28.53 11.75 29.1975 11.75H30V9.25Z" fill="white"/>
</svg>
